<?xml version="1.0" encoding="UTF-8" standalone="no"?>
<!-- Created with Inkscape (http://www.inkscape.org/) -->

<svg
   xmlns:dc="http://purl.org/dc/elements/1.1/"
   xmlns:cc="http://creativecommons.org/ns#"
   xmlns:rdf="http://www.w3.org/1999/02/22-rdf-syntax-ns#"
   xmlns:svg="http://www.w3.org/2000/svg"
   xmlns="http://www.w3.org/2000/svg"
   xmlns:sodipodi="http://sodipodi.sourceforge.net/DTD/sodipodi-0.dtd"
   xmlns:inkscape="http://www.inkscape.org/namespaces/inkscape"
   width="32"
   height="32"
   viewBox="0 0 8.4666662 8.4666669"
   version="1.1"
   id="svg8"
   inkscape:version="0.92.4 (fd57863, 2020-04-02)"
   sodipodi:docname="Armature_symbolic.svg"
   inkscape:export-filename="/home/josh/ignition/Armature.png"
   inkscape:export-xdpi="96"
   inkscape:export-ydpi="96">
  <defs
     id="defs2" />
  <sodipodi:namedview
     id="base"
     pagecolor="#ffffff"
     bordercolor="#666666"
     borderopacity="1.0"
     inkscape:pageopacity="0.0"
     inkscape:pageshadow="2"
     inkscape:zoom="26.1875"
     inkscape:cx="16"
     inkscape:cy="16"
     inkscape:document-units="px"
     inkscape:current-layer="layer1"
     showgrid="false"
     units="px"
     inkscape:snap-global="false"
     inkscape:window-width="1850"
     inkscape:window-height="1016"
     inkscape:window-x="70"
     inkscape:window-y="27"
     inkscape:window-maximized="1"
     inkscape:pagecheckerboard="true" />
  <metadata
     id="metadata5">
    <rdf:RDF>
      <cc:Work
         rdf:about="">
        <dc:format>image/svg+xml</dc:format>
        <dc:type
           rdf:resource="http://purl.org/dc/dcmitype/StillImage" />
        <dc:title></dc:title>
      </cc:Work>
    </rdf:RDF>
  </metadata>
  <g
     inkscape:label="Layer 1"
     inkscape:groupmode="layer"
     id="layer1"
     transform="translate(0,-288.53332)">
    <rect
       style="fill:#ffffff;fill-opacity:1;stroke-width:0.02616819"
       id="rect12"
       width="2.5639658"
       height="0.73868334"
       x="4.3586769"
       y="289.46494"
       ry="0" />
    <rect
       style="fill:#ffffff;fill-opacity:1;stroke-width:0.02221627"
       id="rect14"
       width="2.5605969"
       height="0.73954141"
       x="1.7275125"
       y="289.46494" />
    <rect
       style="fill:#ffffff;fill-opacity:1;stroke-width:0.02048207"
       id="rect16"
       width="0.97050142"
       height="3.49213"
       x="1.7275125"
       y="289.74063" />
    <rect
       style="fill:#ffffff;fill-opacity:1;stroke-width:0.02129304"
       id="rect18"
       width="1.0099248"
       height="3.475929"
       x="5.9127178"
       y="289.76126" />
    <path
       style="fill:#ffffff;stroke:none;stroke-width:0.02608803px;stroke-linecap:butt;stroke-linejoin:miter;stroke-opacity:1"
       d="m 6.9006508,291.84388 1.2702003,0.50225 v 0.90724 h -2.587445 v -1.37709 z"
       id="path4532"
       inkscape:connector-curvature="0" />
    <path
       style="fill:#ffffff;stroke:none;stroke-width:0.02608803px;stroke-linecap:butt;stroke-linejoin:miter;stroke-opacity:1"
       d="m 1.7022397,291.87995 -1.27020015,0.50223 v 0.90729 H 3.0194842 v -1.37711 z"
       id="path4532-3"
       inkscape:connector-curvature="0" />
    <rect
       style="fill:#ffffff;fill-opacity:1;stroke:none;stroke-width:0.60603386;stroke-miterlimit:4;stroke-dasharray:none;stroke-opacity:1"
       id="rect4706"
       width="0.15681483"
       height="0.24301822"
       x="3.085458"
       y="295.15775"
       ry="0" />
    <rect
       style="fill:#cccccc;fill-opacity:1;stroke-width:0.04260912"
       id="rect10"
       width="3.1716061"
       height="5.0745158"
       x="2.7239335"
       y="290.22174"
       ry="0.19965412" />
    <path
       style="fill:#ffffff;stroke:none;stroke-width:0.02664922px;stroke-linecap:butt;stroke-linejoin:miter;stroke-opacity:1"
       d="m 1.6931832,293.08828 -1.26135238,0.0195 -0.008382,2.86377 c 0,0 0.86095248,-0.30165 1.26867108,-0.31785 z m -0.6424064,0.63339 c 0.1403517,4.1e-4 0.1925669,0.0859 0.2149542,0.22012 l -0.00186,0.5381 c -0.063467,0.33545 -0.43126545,0.2542 -0.44244069,0.003 6.2316e-4,-0.25461 0.002144,-0.52451 0.003806,-0.53444 0.0238738,-0.14314 0.10314492,-0.22627 0.22553159,-0.22601 z"
       id="path4549"
       inkscape:connector-curvature="0" />
    <path
       style="fill:#ffffff;stroke:none;stroke-width:0.02664922px;stroke-linecap:butt;stroke-linejoin:miter;stroke-opacity:1"
       d="m 6.909683,293.06859 0.00105,2.5654 c 0.4077186,0.0162 1.2686711,0.31779 1.2686711,0.31779 l -0.00838,-2.86377 z m 0.6411029,0.58561 c 0.1403513,4e-4 0.1925669,0.0857 0.2149542,0.22005 l -0.00191,0.5381 c -0.063468,0.33545 -0.4312154,0.25421 -0.4423904,0.003 6.233e-4,-0.25461 0.0021,-0.52446 0.00375,-0.53438 0.023874,-0.14315 0.1031944,-0.22627 0.2255816,-0.22601 z"
       id="path4549-6"
       inkscape:connector-curvature="0" />
    <path
       style="fill:#e6e6e6;fill-opacity:1;stroke:none;stroke-width:0.5504576;stroke-miterlimit:4;stroke-dasharray:none;stroke-opacity:1"
       id="path4608"
       sodipodi:type="arc"
       sodipodi:cx="3.7957175"
       sodipodi:cy="289.82654"
       sodipodi:rx="0.20385927"
       sodipodi:ry="0.21061583"
       sodipodi:start="6.1855341"
       sodipodi:end="6.1826892"
       sodipodi:open="true"
       d="m 3.9986055,289.806 a 0.20385927,0.21061583 0 0 1 -0.1828682,0.23014 0.20385927,0.21061583 0 0 1 -0.2228794,-0.18877 0.20385927,0.21061583 0 0 1 0.1825512,-0.2304 0.20385927,0.21061583 0 0 1 0.2231391,0.18844" />
    <path
       style="fill:#e6e6e6;fill-opacity:1;stroke:none;stroke-width:0.5504576;stroke-miterlimit:4;stroke-dasharray:none;stroke-opacity:1"
       id="path4608-7"
       sodipodi:type="arc"
       sodipodi:cx="4.8306947"
       sodipodi:cy="289.83466"
       sodipodi:rx="0.20385927"
       sodipodi:ry="0.21061583"
       sodipodi:start="6.1855341"
       sodipodi:end="6.1826892"
       sodipodi:open="true"
       d="m 5.0335827,289.81412 a 0.20385927,0.21061583 0 0 1 -0.1828682,0.23013 0.20385927,0.21061583 0 0 1 -0.2228794,-0.18876 0.20385927,0.21061583 0 0 1 0.1825512,-0.2304 0.20385927,0.21061583 0 0 1 0.2231391,0.18844" />
    <path
       style="fill:#e6e6e6;fill-opacity:1;stroke:none;stroke-width:0.69334477;stroke-miterlimit:4;stroke-dasharray:none;stroke-opacity:1"
       id="path4608-7-5"
       sodipodi:type="arc"
       sodipodi:cx="1.4082119"
       sodipodi:cy="292.59726"
       sodipodi:rx="0.25482407"
       sodipodi:ry="0.2673201"
       sodipodi:start="6.1855341"
       sodipodi:end="6.1826892"
       sodipodi:open="true"
       d="m 1.661822,292.5712 a 0.25482407,0.2673201 0 0 1 -0.2285853,0.29209 0.25482407,0.2673201 0 0 1 -0.2785992,-0.23959 0.25482407,0.2673201 0 0 1 0.228189,-0.29243 0.25482407,0.2673201 0 0 1 0.2789238,0.23917" />
    <path
       style="fill:#e6e6e6;fill-opacity:1;stroke:none;stroke-width:0.69334477;stroke-miterlimit:4;stroke-dasharray:none;stroke-opacity:1"
       id="path4608-7-5-3"
       sodipodi:type="arc"
       sodipodi:cx="7.2142806"
       sodipodi:cy="292.60535"
       sodipodi:rx="0.25482407"
       sodipodi:ry="0.2673201"
       sodipodi:start="6.1855341"
       sodipodi:end="6.1826892"
       sodipodi:open="true"
       d="m 7.4678907,292.57928 a 0.25482407,0.2673201 0 0 1 -0.2285854,0.29209 0.25482407,0.2673201 0 0 1 -0.2785992,-0.23958 0.25482407,0.2673201 0 0 1 0.2281891,-0.29243 0.25482407,0.2673201 0 0 1 0.2789238,0.23917" />
    <rect
       style="fill:#ffffff;fill-opacity:1;stroke:none;stroke-width:0.62620419;stroke-miterlimit:4;stroke-dasharray:none;stroke-opacity:1"
       id="rect4704"
       width="0.43140599"
       height="0.16600284"
       x="-27.571331"
       y="293.88171"
       ry="0.08300142"
       transform="matrix(0.99391379,-0.11016071,0.10328285,0.99465203,0,0)" />
  </g>
</svg>
